<svg id="Layer_1" data-name="Layer 1" xmlns="http://www.w3.org/2000/svg" viewBox="0 0 734 734"><defs><style>.cls-1{fill:#fff;}</style></defs><title>logo-symbol-white</title><path class="cls-1" d="M710.32,0H0V734H734V0ZM150.94,585.69s37.49-43.41,73-71l11.84,9.86s-43.4,67.09-61.17,101.62Zm192-78s36.54-73.09,71.5-110.43l12.71,7.95S388.48,498.43,377.09,557H358.42Zm206.73,60.53,8.47.9c2.49,19.86,11.75,46,11.75,46l-12.11,16.72C545.87,602.49,549.66,568.23,549.66,568.23ZM710.32,475c-76.41-54.68-93.62-144.34-93.62-144.34l-20.22-.93c-14.71,28.51-26.66,60.69-26.66,60.69l-18.38-9.19c-35.87,44.14-46,80.9-46,80.9-.92-47.82,33.08-184.79,33.08-184.79l-23-18.39c35.87-54.24,127.8-141.59,127.8-141.59l-12.87-16.55c-126.88,72.63-248.25,204.1-248.25,204.1l-15.63-8.27c-48.73,24.82-155.38,128.72-155.38,128.72,23.9-43.22,67.11-92.86,67.11-92.86L260,319.57C277.43,301.18,325.45,258,325.45,258l-19.51-12c-46,22.06-118.6,68-118.6,68l-9.2-11C77,345.32,23.67,418.87,23.67,418.87V23.67H710.32Z"/><path class="cls-1" d="M363.49,222.77s72-63.14,132.2-100.63L487,110.54s-58.66,13.3-142.46,71.66l3.41,34Z"/><path class="cls-1" d="M632.42,265.31s12.24-35.25,26.31-58.23L650.58,199s-32.81,32.82-45,73.69Z"/><path class="cls-1" d="M218.6,182.08l-6.5-15.42s-33.57,2.26-82.76,36.19l6,33S174,205.18,218.6,182.08Z"/></svg>