<svg id="Layer_1" data-name="Layer 1" xmlns="http://www.w3.org/2000/svg" viewBox="0 0 1094.36 198.3"><title>logo-long-new</title><path d="M756.69,74.24c0-12-8-17.92-22-17.92H714.27V92.58h20.44C748.71,92.58,756.69,86.56,756.69,74.24Z"/><path d="M396.57,153.19a7.41,7.41,0,0,0-7.63,7.13h15C403.63,156.07,400.86,153.19,396.57,153.19Z"/><path d="M306,146.89A11.15,11.15,0,1,0,317.48,158,11.33,11.33,0,0,0,306,146.89Z"/><path d="M432.39,146.89A11.15,11.15,0,1,0,443.87,158,11.33,11.33,0,0,0,432.39,146.89Z"/><path d="M494.28,153.19c-4.54,0-7.81,3.42-7.85,8.06s3.28,8.06,7.85,8.06,7.81-3.38,7.81-8.06S498.81,153.19,494.28,153.19Z"/><path d="M270.18,153.19a7.41,7.41,0,0,0-7.63,7.13h15C277.23,156.07,274.46,153.19,270.18,153.19Z"/><polygon points="417.05 101.12 451.49 101.12 434.4 59.96 417.05 101.12"/><path d="M518.5,153.26a7.57,7.57,0,0,0-7.78,8c0,4.75,3.28,8,7.78,8s7.77-3.28,7.77-8A7.55,7.55,0,0,0,518.5,153.26Z"/><path d="M610.44,153.26a7.57,7.57,0,0,0-7.78,8c0,4.75,3.28,8,7.78,8s7.77-3.28,7.77-8A7.55,7.55,0,0,0,610.44,153.26Z"/><path d="M280.27,108.54c0-8-7.14-12.88-19-12.74h-23.8v25.9h23.8C273.13,121.84,280.27,116.94,280.27,108.54Z"/><polygon points="905.22 101.12 939.66 101.12 922.58 59.96 905.22 101.12"/><path d="M540.46,153.26a7.57,7.57,0,0,0-7.78,8c0,4.75,3.28,8,7.78,8s7.77-3.28,7.77-8A7.55,7.55,0,0,0,540.46,153.26Z"/><path d="M276.77,67.8c0-7.42-5.88-11.76-15.54-11.62h-23.8V80h23.8C270.89,80,276.77,75.5,276.77,67.8Z"/><path d="M198.36.15v198h896V.15ZM540.53,39.38a54.46,54.46,0,0,1,37.8,15.68L567.41,68.78c-7-7.84-16.94-12.74-26.6-12.74-18.48,0-32.9,14.28-32.9,32.48s14.42,32.62,32.9,32.62c9.38,0,19.32-4.34,26.6-11.48L578.47,122c-10.08,10.22-24.5,16.8-38.64,16.8-28.84,0-51.1-21.7-51.1-50C488.73,60.8,511.27,39.38,540.53,39.38Zm-222.6.56h18.76V121H379v16.94h-61Zm-99.26,0h43.54c20.86,0,33.74,9.38,33.74,24.5,0,10.78-6.44,19-17.08,21.7,13,2.38,20.86,11.76,20.86,24.78,0,16.8-13.86,27-36.26,27h-44.8Zm19,107h-8.5v23.68h-1.51V146.92h-8.5v-1.48h18.5Zm18.5,23.68h-1.51V159.45c0-3.85-2.27-6.12-6.12-6.12-4.64.11-7.34,3.2-7.34,8.1v9.18h-1.51V143.9h1.51v12.85c1.26-3.17,3.92-4.86,7.7-4.93,4.57,0,7.27,2.77,7.27,7.34Zm14.08-1.33a8.45,8.45,0,0,0,6.33-2.59l.86,1a9.72,9.72,0,0,1-7.27,3c-5.29,0-9.14-3.89-9.14-9.39s3.85-9.43,9.14-9.43c5.51,0,8.82,4,8.71,9.83H262.51C262.73,166.22,265.89,169.28,270.25,169.28ZM306,170.64A12.62,12.62,0,1,1,319,158,12.83,12.83,0,0,1,306,170.64Zm34.88,0h-1.51V159.45c0-3.85-2.27-6.12-6.12-6.12-4.32.11-7,2.81-7.31,7.13v10.15h-1.51V151.85h1.51v4.79c1.26-3.1,3.92-4.75,7.67-4.82,4.57,0,7.27,2.77,7.27,7.34Zm8.57,0h-1.51V143.9h1.51Zm9.14,0h-1.48V151.85h1.48Zm-.72-22.82a1.32,1.32,0,1,1,1.26-1.33A1.29,1.29,0,0,1,357.87,147.79Zm24.69,22.82h-1.51V159.45c0-3.85-2.27-6.12-6.12-6.12-4.32.11-7,2.81-7.31,7.13v10.15h-1.51V151.85h1.51v4.79c1.26-3.1,3.92-4.75,7.67-4.82,4.57,0,7.27,2.77,7.27,7.34Zm14.08-1.33a8.45,8.45,0,0,0,6.33-2.59l.86,1a9.72,9.72,0,0,1-7.27,3c-5.29,0-9.14-3.89-9.14-9.39s3.85-9.43,9.14-9.43c5.51,0,8.82,4,8.71,9.83H388.91C389.12,166.22,392.29,169.28,396.64,169.28Zm35.75,1.37a12.62,12.62,0,1,1,13-12.63A12.83,12.83,0,0,1,432.39,170.64Zm34,0H464.9v-5c-1.19,3.24-3.82,5-7.52,5-4.54,0-7.16-2.74-7.16-7.34V151.85h1.48V163c0,3.85,2.23,6.12,6,6.12,4.54-.11,7.2-3.2,7.2-8.1v-9.18h1.48Zm-8.17-53.39H410.33l-8.68,20.72H382.19l43-98h19.46l42.42,98H466.89Zm20.59,53.43c-2.66,0-4.25-1.69-4.25-5.22V153.62h-2.74v-1.3h2.74v-4.64H476v4.64h6.37v1.3H476v11.63c0,2.66,1,4,3,3.92a5.6,5.6,0,0,0,3.17-1.08l.58,1.22A6.86,6.86,0,0,1,478.79,170.64Zm24.8,0h-1.51v-4.9a8.46,8.46,0,0,1-8,5c-5.33,0-9.14-4-9.14-9.47s3.82-9.5,9.11-9.5a8.47,8.47,0,0,1,8,5V143.9h1.51Zm14.91,0a9.41,9.41,0,1,1,9.25-9.43C527.75,166.76,523.87,170.64,518.5,170.64Zm22,0a9.41,9.41,0,1,1,9.25-9.43C549.71,166.76,545.82,170.64,540.46,170.64Zm23.22-17.28c-4.14,0-6.66,2.74-7,7.09v10.15h-1.51V151.85h1.51v4.72a7.19,7.19,0,0,1,7-4.75Zm25.81,17.28a12.62,12.62,0,1,1,0-25.23,13.32,13.32,0,0,1,8.85,3.38l-.9,1.15a11.67,11.67,0,0,0-7.92-3.1,11.16,11.16,0,1,0,0,22.32,11.88,11.88,0,0,0,7.92-3.06l.94,1A13.23,13.23,0,0,1,589.49,170.64Zm21,0a9.41,9.41,0,1,1,9.25-9.43C619.7,166.76,615.81,170.64,610.44,170.64Zm45.46,0h-1.48V159.45c0-3.85-2.23-6.12-6-6.12-4.5.11-7.13,3.2-7.13,8.1v9.18h-1.48V159.45c0-3.85-2.27-6.12-6-6.12-4.5.11-7.16,3.2-7.16,8.1v9.18h-1.48V151.85h1.48v4.93c1.22-3.2,3.85-4.9,7.56-5s6.26,2,6.91,5.44c1.15-3.49,3.82-5.36,7.67-5.44,4.5,0,7.13,2.77,7.13,7.34Zm-27.6-74.67L612.63,113.3v24.64H593.87v-98h18.76V87.82L657,39.94h21.84L641.47,81.38l40,56.56H658.83Zm65.22,74.67h-1.48V159.45c0-3.85-2.23-6.12-6-6.12-4.5.11-7.13,3.2-7.13,8.1v9.18h-1.48V159.45c0-3.85-2.27-6.12-6-6.12-4.5.11-7.16,3.2-7.16,8.1v9.18h-1.48V151.85h1.48v4.93c1.22-3.2,3.85-4.9,7.56-5s6.26,2,6.91,5.44c1.15-3.49,3.82-5.36,7.67-5.44,4.5,0,7.13,2.77,7.13,7.34Zm2-130.67h40.18c24.64,0,38.78,12.18,38.78,33.74,0,22.4-14.14,35.42-38.78,35.42H714.27v28.84H695.51ZM716,170.61h-1.48v-5c-1.19,3.24-3.82,5-7.52,5-4.54,0-7.16-2.74-7.16-7.34V151.85h1.48V163c0,3.85,2.23,6.12,6,6.12,4.54-.11,7.2-3.2,7.2-8.1v-9.18H716Zm24,0h-1.51V159.45c0-3.85-2.27-6.12-6.12-6.12-4.32.11-7,2.81-7.31,7.13v10.15h-1.51V151.85H725v4.79c1.26-3.1,3.92-4.75,7.67-4.82,4.57,0,7.27,2.77,7.27,7.34Zm8.35,0h-1.48V151.85h1.48Zm-.72-22.82a1.32,1.32,0,1,1,1.26-1.33A1.29,1.29,0,0,1,747.57,147.79Zm13.14,22.86c-2.66,0-4.25-1.69-4.25-5.22V153.62h-2.74v-1.3h2.74v-4.64h1.44v4.64h6.37v1.3H757.9v11.63c0,2.66,1,4,3,3.92a5.6,5.6,0,0,0,3.17-1.08l.58,1.22A6.86,6.86,0,0,1,760.71,170.64Zm13.1,2.66c-1.15,2.81-3,4.32-5.18,4.32a5.89,5.89,0,0,1-3.56-1.08l.65-1.3a4.91,4.91,0,0,0,2.84.86c1.69,0,3.13-1.19,4-3.38l.86-2.12-7.74-18.75h1.58l6.91,17,6.73-17h1.58Zm89.69-35.37H790v-98h71.82V56.32H808.76V80.54h47.6V96.92h-47.6v24.64H863.5Zm91.56,0-8.68-20.72H898.5l-8.68,20.72H870.36l43-98H932.8l42.42,98Zm97,0-30.52-42-15.68,17.36v24.64H987.12v-98h18.76V87.82l44.38-47.88h21.84l-37.38,41.44,40,56.56Z"/><path d="M191.9,0H0V198.3H198.3V0ZM40.78,158.23S50.91,146.5,60.5,139l3.2,2.66S52,159.83,47.17,169.16Zm51.87-21.07s9.87-19.75,19.32-29.83l3.43,2.15s-10.45,25.18-13.52,41h-5Zm55.85,16.35,2.29.24A73.27,73.27,0,0,0,154,166.18l-3.27,4.52C147.47,162.77,148.5,153.51,148.5,153.51Zm43.4-25.2c-20.64-14.77-25.29-39-25.29-39l-5.46-.25a172,172,0,0,0-7.2,16.4L149,103c-9.69,11.92-12.42,21.86-12.42,21.86-.25-12.92,8.94-49.92,8.94-49.92l-6.21-5c9.69-14.65,34.53-38.25,34.53-38.25l-3.48-4.47c-34.28,19.62-67.07,55.14-67.07,55.14L99,80.13c-13.16,6.7-42,34.77-42,34.77C63.53,103.23,75.2,89.82,75.2,89.82l-5-3.48C75,81.37,87.92,69.7,87.92,69.7l-5.27-3.23c-12.42,6-32,18.38-32,18.38l-2.48-3C20.8,93.29,6.4,113.16,6.4,113.16V6.4H191.9Z"/><path d="M98.2,60.19S117.66,43.13,133.92,33l-2.35-3.14s-15.85,3.59-38.49,19.36l.92,9.2Z"/><path d="M170.85,71.68s3.31-9.52,7.11-15.73l-2.2-2.18s-8.87,8.87-12.15,19.91Z"/><path d="M59.06,49.19,57.3,45s-9.07.61-22.36,9.78l1.63,8.92A158.17,158.17,0,0,1,59.06,49.19Z"/></svg>