<svg id="Layer_1" data-name="Layer 1" xmlns="http://www.w3.org/2000/svg" viewBox="0 0 654.42 654.42"><defs><style>.cls-1{fill:#1a1a1a;}</style></defs><title>logo-symbol</title><path class="cls-1" d="M633.31,0H0V654.42H654.42V0ZM134.58,522.19s33.43-38.71,65.08-63.34l10.56,8.79s-38.69,59.82-54.53,90.6Zm171.18-69.54s32.58-65.17,63.75-98.45l11.33,7.08s-34.48,83.11-44.63,135.29H319.56Zm184.32,54,7.55.8c2.22,17.71,10.48,41,10.48,41l-10.79,14.91C486.69,537.17,490.07,506.63,490.07,506.63Zm143.24-83.17c-68.13-48.76-83.47-128.69-83.47-128.69l-18-.83C518.69,319.35,508,348,508,348l-16.39-8.2c-32,39.35-41,72.13-41,72.13-.82-42.63,29.5-164.76,29.5-164.76l-20.49-16.4c32-48.36,113.95-126.24,113.95-126.24L562.13,89.83c-113.13,64.76-221.33,182-221.33,182l-13.93-7.37C283.43,286.56,188.34,379.2,188.34,379.2c21.31-38.53,59.84-82.79,59.84-82.79l-16.4-11.49C247.36,268.53,290.16,230,290.16,230l-17.4-10.66C231.78,239,167,280,167,280l-8.2-9.84C68.66,307.88,21.11,373.45,21.11,373.45V21.11h612.2Z"/><path class="cls-1" d="M324.08,198.62S388.3,142.33,442,108.9l-7.76-10.35s-52.3,11.86-127,63.89l3,30.35Z"/><path class="cls-1" d="M563.85,236.55s10.91-31.43,23.46-51.92L580,177.44s-29.26,29.26-40.11,65.7Z"/><path class="cls-1" d="M194.9,162.34l-5.79-13.75s-29.93,2-73.78,32.26l5.37,29.44S155.14,182.94,194.9,162.34Z"/></svg>