<svg id="Layer_1" data-name="Layer 1" xmlns="http://www.w3.org/2000/svg" viewBox="0 0 1068.72 198.3"><defs><style>.cls-1{font-size:140px;font-family:Montserrat-Medium, Montserrat;}.cls-1,.cls-4,.cls-9{fill:#1a1a1a;}.cls-2{letter-spacing:0em;}.cls-3{letter-spacing:-0.02em;}.cls-4{font-size:36px;font-family:Montserrat-ExtraLight, Montserrat;}.cls-5{letter-spacing:-0.06em;}.cls-6{letter-spacing:-0.01em;}.cls-7{letter-spacing:0em;}.cls-8{letter-spacing:-0.02em;}</style></defs><title>logo-long</title><text class="cls-1" transform="translate(198.63 137.94)">B<tspan class="cls-2" x="99.26" y="0">L</tspan><tspan class="cls-3" x="175.7" y="0">A</tspan><tspan x="277.76" y="0">CKPEAK</tspan></text><text class="cls-4" transform="translate(210.73 170.61)"><tspan class="cls-5">T</tspan><tspan x="17.03" y="0">he Online Ou</tspan><tspan class="cls-6" x="251.42" y="0">t</tspan><tspan class="cls-7" x="264.49" y="0">door </tspan><tspan class="cls-8" x="356.11" y="0">C</tspan><tspan x="380.73" y="0">ommunity</tspan></text><path class="cls-9" d="M191.9,0H0V198.3H198.3V0ZM40.78,158.23S50.91,146.5,60.5,139l3.2,2.66S52,159.83,47.17,169.16Zm51.87-21.07s9.87-19.75,19.32-29.83l3.43,2.15s-10.45,25.18-13.52,41h-5Zm55.85,16.35,2.29.24A73.27,73.27,0,0,0,154,166.18l-3.27,4.52C147.47,162.77,148.5,153.51,148.5,153.51Zm43.4-25.2c-20.64-14.77-25.29-39-25.29-39l-5.46-.25a172,172,0,0,0-7.2,16.4L149,103c-9.69,11.92-12.42,21.86-12.42,21.86-.25-12.92,8.94-49.92,8.94-49.92l-6.21-5c9.69-14.65,34.53-38.25,34.53-38.25l-3.48-4.47c-34.28,19.62-67.07,55.14-67.07,55.14L99,80.13c-13.16,6.7-42,34.77-42,34.77C63.53,103.23,75.2,89.82,75.2,89.82l-5-3.48C75,81.37,87.92,69.7,87.92,69.7l-5.27-3.23c-12.42,6-32,18.38-32,18.38l-2.48-3C20.8,93.29,6.4,113.16,6.4,113.16V6.4H191.9Z"/><path class="cls-9" d="M98.2,60.19S117.66,43.13,133.92,33l-2.35-3.14s-15.85,3.59-38.49,19.36l.92,9.2Z"/><path class="cls-9" d="M170.85,71.68s3.31-9.52,7.11-15.73l-2.2-2.18s-8.87,8.87-12.15,19.91Z"/><path class="cls-9" d="M59.06,49.19,57.3,45s-9.07.61-22.36,9.78l1.63,8.92A158.17,158.17,0,0,1,59.06,49.19Z"/></svg>